PathFileType	4	(X/Y/Z)	 s10c0102.trc
DataRate	CameraRate	NumFrames	NumMarkers	Units	OrigDataRate	OrigDataStartFrame	OrigNumFrames
200	200	4	50	mm	200	751	2000
Frame#	Time	racr			lacr			c7			jug			rlel			rdr			llel			ldr			s2			lic			ric			lasi			rasi			rpsi			lpsi			rgt			lgt			rth1			rth2			rth3			rth4			rlfc			rmfc			rsh1			rsh2			rsh3			rsh4			rlmal			rmmal			rcal			rtoe			rmt5			lth1			lth2			lth4			lth3			llfc			lmfc			llmal			lmmal			lcal			lmt5			lsh1			lsh2			lsh3			lsh4			ltoe			SBIKE			LBIKE			RBIKE			
		X1	Y1	Z1	X2	Y2	Z2	X3	Y3	Z3	X4	Y4	Z4	X5	Y5	Z5	X6	Y6	Z6	X7	Y7	Z7	X8	Y8	Z8	X9	Y9	Z9	X10	Y10	Z10	X11	Y11	Z11	X12	Y12	Z12	X13	Y13	Z13	X14	Y14	Z14	X15	Y15	Z15	X16	Y16	Z16	X17	Y17	Z17	X18	Y18	Z18	X19	Y19	Z19	X20	Y20	Z20	X21	Y21	Z21	X22	Y22	Z22	X23	Y23	Z23	X24	Y24	Z24	X25	Y25	Z25	X26	Y26	Z26	X27	Y27	Z27	X28	Y28	Z28	X29	Y29	Z29	X30	Y30	Z30	X31	Y31	Z31	X32	Y32	Z32	X33	Y33	Z33	X34	Y34	Z34	X35	Y35	Z35	X36	Y36	Z36	X37	Y37	Z37	X38	Y38	Z38	X39	Y39	Z39	X40	Y40	Z40	X41	Y41	Z41	X42	Y42	Z42	X43	Y43	Z43	X44	Y44	Z44	X45	Y45	Z45	X46	Y46	Z46	X47	Y47	Z47	X48	Y48	Z48	X49	Y49	Z49	X50	Y50	Z50	
751	3.7550	380.639539	1271.779392	7.919880	469.844427	1298.150852	-278.635131	383.804497	1327.918365	-158.290086	389.187438	1186.632403	-154.210511	449.066698	1014.698076	53.715183	637.484647	885.973971	-2.180682	539.227504	1063.908414	-426.455932	666.762108	887.339218	-367.390931	-104.131214	1094.675013	-254.806210	75.774848	1109.494879	-393.731372	46.998845	1140.145843	-103.293553	100.201179	1028.665379	-353.821220	62.365228	1062.557255	-105.269429	-76.194131	1159.125948	-203.953401	-54.324577	1154.661281	-314.019433	-37.268847	1049.779344	-45.292110	-25.099032	964.907965	-426.259992	87.845255	992.760795	-20.460615	175.367570	998.668006	-36.801112	252.497535	964.737619	-29.382441	178.352831	1030.948905	-55.169740	366.582497	941.929707	-49.082962	360.786053	915.516327	-174.732988	301.164809	847.278824	-22.619263	280.846453	761.160053	-30.823841	222.895231	697.647226	-32.708629	309.529411	747.966069	-53.098745	167.680378	594.111851	-46.007694	199.011989	603.504276	-124.664120	112.169704	587.904841	-96.416963	330.779715	480.121426	-85.023207	242.856497	487.846931	-27.820597	45.474919	855.442669	-441.192113	110.945156	799.871359	-426.142516	140.297692	821.739146	-417.739269	139.587502	716.544082	-415.063119	190.802454	621.483532	-392.080033	197.746391	613.713741	-274.205809	27.550229	280.463772	-379.966384	47.052624	277.785646	-301.561822	-28.054954	267.498750	-335.801728	116.053151	159.977750	-394.457494	114.419936	523.707367	-417.970425	111.252178	437.895073	-403.684762	62.508608	363.218444	-394.815383	142.102937	431.452956	-382.193049	201.672802	158.495779	-335.303865	-205.304271	833.864140	-225.019248	-78.313967	81.729981	-423.714187	-102.762116	80.605777	-24.437601	
752	3.7600	381.097578	1270.828547	8.349861	470.430146	1297.551376	-276.626532	384.175672	1326.744833	-157.140978	389.268579	1185.452070	-153.217312	448.392614	1013.934306	54.620920	637.412606	885.804268	-2.165306	540.952438	1064.564883	-425.140255	667.060577	887.222193	-367.280905	-104.330540	1095.250017	-253.680130	75.555416	1109.405240	-393.388217	47.013886	1139.643094	-103.634166	99.688983	1028.425073	-353.987201	62.147526	1062.127371	-104.825196	-76.033190	1159.557528	-202.984465	-54.481771	1155.204855	-313.076622	-37.542424	1049.175361	-44.964106	-26.402452	965.211499	-425.825674	86.908388	991.756228	-20.549133	173.856405	995.739137	-37.581891	251.306035	961.512033	-29.151609	178.328817	1028.577260	-55.655392	365.852455	936.698287	-48.757575	358.354271	910.462305	-174.291381	301.055386	841.645642	-22.645690	282.031839	755.032493	-29.926904	224.899389	690.624653	-31.405378	310.643352	742.147663	-52.445764	171.071649	586.030632	-44.879539	201.783335	596.553065	-123.466887	114.869480	577.306752	-95.167859	338.372046	479.709444	-84.369815	250.050584	483.148126	-26.898105	44.595740	855.105916	-440.609442	111.145723	800.777906	-425.905094	140.290281	823.257430	-418.584394	141.535039	718.193104	-414.318044	193.816391	624.129726	-392.166445	203.802476	615.789511	-274.436613	22.150725	287.201395	-380.028222	41.498432	283.619632	-301.704153	-33.717053	275.173722	-335.478007	107.611699	164.577167	-394.664923	115.620940	527.935371	-417.880412	110.331815	442.233640	-403.460975	59.858698	368.743483	-394.623309	140.928046	435.027899	-382.018530	192.995619	160.160284	-335.384311	-205.361165	833.955979	-225.170246	-78.327900	81.739280	-423.714701	-102.778152	80.610337	-24.439609	
753	3.7650	381.731772	1269.580265	8.795729	471.048996	1296.798309	-274.751738	384.577866	1325.638206	-156.029960	389.439094	1184.084191	-152.023161	447.830106	1012.996397	55.489855	637.388326	885.560765	-2.134911	542.679740	1065.210004	-423.906360	667.256538	887.135495	-367.141580	-104.407186	1095.647792	-252.920424	75.343431	1109.224025	-393.025096	47.002712	1139.106061	-103.910108	99.124791	1028.107037	-354.100903	62.042229	1061.403724	-104.358435	-75.813317	1159.731732	-202.248837	-54.493453	1155.605862	-312.390992	-37.835220	1048.411046	-44.821104	-27.486671	965.408790	-425.331326	85.949102	990.016277	-20.579859	173.310752	992.763853	-37.156353	249.896076	957.193856	-28.924988	178.136499	1025.407970	-55.572099	364.939699	930.397432	-48.282258	356.043239	904.245375	-173.477185	300.857735	834.707386	-22.225781	282.937224	747.766690	-28.844933	226.513294	682.751516	-29.955848	311.495059	735.190166	-51.692588	174.116361	577.085439	-43.630514	204.027883	588.616188	-122.419109	118.097452	566.476800	-93.782600	345.375876	478.684702	-83.646160	257.082061	477.769824	-25.893675	43.710230	854.475804	-439.492511	111.515596	801.608426	-425.580452	140.370960	824.696117	-419.200784	143.710946	720.010140	-413.284132	198.156532	627.164188	-392.688105	209.565428	618.547102	-274.453419	17.083040	294.366375	-380.061259	36.458469	289.985716	-301.867019	-38.964133	283.434872	-335.137713	99.473077	169.645978	-394.922493	117.309599	532.310340	-417.598307	109.653123	446.452596	-402.861819	57.462916	374.591182	-394.498861	139.915612	438.432883	-381.182076	184.695471	162.692237	-335.796929	-205.025611	833.870845	-225.068740	-78.326309	81.733948	-423.709634	-102.779959	80.601596	-24.435932	
754	3.7700	382.498397	1268.210714	9.187454	471.547683	1295.977926	-272.990174	384.878563	1324.533039	-155.091353	389.424046	1182.739048	-150.922097	447.325378	1011.953869	56.410413	637.399257	885.319520	-2.140550	544.156379	1065.604044	-422.816082	667.398460	887.040330	-367.071613	-104.468529	1095.974098	-252.105314	75.114892	1109.018938	-392.714128	46.986144	1138.687376	-104.115532	98.712991	1027.798537	-354.196525	61.902129	1060.626096	-103.625258	-75.727326	1159.841723	-201.597497	-54.537295	1156.008434	-311.611302	-38.404091	1047.855820	-44.339514	-28.380754	965.431095	-424.831213	85.093378	987.300412	-20.924550	172.275611	988.791094	-36.787851	248.510997	952.025653	-28.139018	177.805089	1021.509325	-54.773274	364.161294	922.843938	-47.893268	353.870989	896.798639	-172.358231	300.566422	826.726066	-21.400187	283.568554	739.511330	-27.697064	227.779293	673.951487	-28.606030	312.081739	727.278620	-50.881423	176.774261	567.141833	-42.614863	206.374614	579.890698	-121.210188	120.710872	554.048359	-92.621267	351.866398	477.202488	-83.141227	264.133682	471.800251	-24.730012	43.102596	853.838570	-438.486363	112.088261	802.430212	-425.072373	140.564665	826.014253	-419.612548	146.117215	721.535520	-412.293555	202.132874	629.873492	-392.231905	215.474878	621.662439	-273.992845	12.230794	301.701880	-380.072916	31.576736	296.486108	-302.004589	-44.141307	291.933760	-335.082601	91.609615	175.090609	-395.120181	119.376559	536.782428	-417.221139	109.442784	451.135023	-402.416253	55.336167	380.626173	-394.326181	139.411110	442.376014	-380.579066	176.751886	166.224621	-336.332128	-205.016401	833.851612	-225.040419	-78.299585	81.732473	-423.721332	-102.765839	80.594693	-24.436515	
